<svg width="50" height="50" xmlns="http://www.w3.org/2000/svg">
 <g>
  <title>Layer 1</title>
  <g stroke="null" id="svg_17">
   <path stroke="null" fill="#dddddd" id="svg_12" d="m3.54985,20.63073c0,-2.09016 -0.04105,-3.80362 -0.16638,-5.47618l3.27126,0l0.21606,3.34512l0.08427,0c1.00688,-1.92442 3.35768,-3.80579 6.71318,-3.80579c2.80886,0 7.17558,1.67257 7.17558,8.61037l0,12.0805l-3.69908,0l0,-11.65428c0,-3.26118 -1.21645,-5.97774 -4.69946,-5.97774c-2.4329,0 -4.32133,1.72207 -4.95008,3.76272a5.28283,5.26311 0 0 0 -0.25279,1.72209l0,12.16444l-3.69258,0l0,-14.77125l0,0l0.00001,0z"/>
   <path stroke="null" fill="#dddddd" id="svg_13" d="m27.0882,9.47596c0.04105,1.25497 -0.88154,2.25809 -2.35083,2.25809a2.19524,2.18705 0 0 1 -2.22333,-2.25809a2.24925,2.24086 0 0 1 2.3076,-2.29898c1.385,0 2.26656,1.00313 2.26656,2.29898zm-4.10529,25.9174l0,-20.23452l3.69261,0l0,20.23452l-3.69261,0z"/>
   <path stroke="null" fill="#dddddd" id="svg_14" d="m32.91985,15.161l2.89528,4.34822c0.75407,1.12795 1.38282,2.17197 2.05481,3.30208l0.12531,0c0.67197,-1.21192 1.34394,-2.25808 2.01375,-3.34512l2.85421,-4.30518l3.98641,0l-6.92271,9.77493l7.13013,10.45098l-4.19381,0l-2.97953,-4.55065c-0.79729,-1.17102 -1.46711,-2.29901 -2.18228,-3.51095l-0.0821,0c-0.67197,1.21195 -1.38498,2.29902 -2.14122,3.51095l-2.93634,4.55709l-4.07071,0l7.21663,-10.33258l-6.87956,-9.90193l4.11175,0.00216l-0.00001,-0.00001z"/>
   <path stroke="null" fill="#dddddd" id="svg_15" d="m47.08296,13.28825l-0.47751,0l0,-0.17221l1.16245,0l0,0.17221l-0.47968,0l0,1.39274l-0.21606,0l0.0108,-1.39274z"/>
   <path stroke="null" fill="#dddddd" id="svg_16" d="m49.26092,13.9943c-0.0108,-0.21526 -0.02592,-0.48003 -0.02377,-0.67593l0,0c-0.054,0.18297 -0.11883,0.37887 -0.19877,0.59412l-0.27657,0.75987l-0.14908,0l-0.25497,-0.74479c-0.07562,-0.21526 -0.13828,-0.43051 -0.1815,-0.60919l0,0c0,0.19589 -0.01727,0.45851 -0.03023,0.69313l-0.04323,0.66945l-0.1923,0l0.10804,-1.56493l0.25927,0l0.26794,0.75772c0.06481,0.19373 0.11884,0.36379 0.15988,0.52738l0,0c0.03889,-0.15713 0.09507,-0.32934 0.16421,-0.52738l0.28088,-0.75772l0.25928,0l0.09723,1.56493l-0.19879,0l-0.04753,-0.68667l0,0z"/>
  </g>
 </g>

</svg>